{
  "accessors": [
    {
      "bufferView": 2,
      "componentType": 5126,
      "count": 1551,
      "max": [
        15.786726951599121,
        48.73200988769531,
        50.822906494140625
      ],
      "min": [
        -17.87577247619629,
        -29.56937026977539,
        -0.27359500527381897
      ],
      "type": "VEC3"
    },
    {
      "bufferView": 2,
      "byteOffset": 18612,
      "componentType": 5126,
      "count": 1551,
      "max": [
        0.9993358850479126,
        0.9989331364631653,
        0.9993812441825867
      ],
      "min": [
        -0.9991295337677002,
        -0.9998403787612915,
        -0.9996982216835022
      ],
      "type": "VEC3"
    },
    {
      "bufferView": 3,
      "componentType": 5126,
      "count": 1551,
      "max": [
        0.999692440032959,
        0.99989914894104,
        0.9992545247077942,
        1.0
      ],
      "min": [
        -0.9999939203262329,
        -0.995728075504303,
        -0.989152729511261,
        -1.0
      ],
      "type": "VEC4"
    },
    {
      "bufferView": 1,
      "componentType": 5126,
      "count": 1551,
      "max": [
        0.9919419884681702,
        0.9878389835357666
      ],
      "min": [
        0.014316000044345856,
        0.011099999770522118
      ],
      "type": "VEC2"
    },
    {
      "bufferView": 0,
      "componentType": 5125,
      "count": 7788,
      "type": "SCALAR"
    }
  ],
  "asset": {
    "extras": {
      "author": "Leonidas Pappas (https://sketchfab.com/l.pappas2000)",
      "license": "CC-BY-4.0 (http://creativecommons.org/licenses/by/4.0/)",
      "source": "https://sketchfab.com/3d-models/leopard-gecko-25e94b9431154572826fee7781f1fd7a",
      "title": "Leopard Gecko"
    },
    "generator": "Sketchfab-12.64.0",
    "version": "2.0"
  },
  "bufferViews": [
    {
      "buffer": 0,
      "byteLength": 31152,
      "name": "floatBufferViews",
      "target": 34963
    },
    {
      "buffer": 0,
      "byteLength": 12408,
      "byteOffset": 31152,
      "byteStride": 8,
      "name": "floatBufferViews",
      "target": 34962
    },
    {
      "buffer": 0,
      "byteLength": 37224,
      "byteOffset": 43560,
      "byteStride": 12,
      "name": "floatBufferViews",
      "target": 34962
    },
    {
      "buffer": 0,
      "byteLength": 24816,
      "byteOffset": 80784,
      "byteStride": 16,
      "name": "floatBufferViews",
      "target": 34962
    }
  ],
  "buffers": [
    {
      "byteLength": 105600,
      "uri": "scene.bin"
    }
  ],
  "images": [
    {
      "uri": "textures/phongE1SG_baseColor.png"
    },
    {
      "uri": "textures/phongE1SG_normal.png"
    }
  ],
  "materials": [
    {
      "doubleSided": true,
      "name": "phongE1SG",
      "normalTexture": {
        "index": 1
      },
      "pbrMetallicRoughness": {
        "baseColorTexture": {
          "index": 0
        },
        "metallicFactor": 0.0
      }
    }
  ],
  "meshes": [
    {
      "name": "Object_0",
      "primitives": [
        {
          "attributes": {
            "NORMAL": 1,
            "POSITION": 0,
            "TANGENT": 2,
            "TEXCOORD_0": 3
          },
          "indices": 4,
          "material": 0,
          "mode": 4
        }
      ]
    }
  ],
  "nodes": [
    {
      "children": [
        1
      ],
      "matrix": [
        1.0,
        0.0,
        0.0,
        0.0,
        0.0,
        2.220446049250313e-16,
        -1.0,
        0.0,
        0.0,
        1.0,
        2.220446049250313e-16,
        0.0,
        0.0,
        0.0,
        0.0,
        1.0
      ],
      "name": "Sketchfab_model"
    },
    {
      "children": [
        2
      ],
      "name": "49ca8b0d7029494583b8577e670a227f.obj.cleaner.materialmerger.gles"
    },
    {
      "mesh": 0,
      "name": "Object_2"
    }
  ],
  "samplers": [
    {
      "magFilter": 9729,
      "minFilter": 9987,
      "wrapS": 10497,
      "wrapT": 10497
    }
  ],
  "scene": 0,
  "scenes": [
    {
      "name": "Sketchfab_Scene",
      "nodes": [
        0
      ]
    }
  ],
  "textures": [
    {
      "sampler": 0,
      "source": 0
    },
    {
      "sampler": 0,
      "source": 1
    }
  ]
}
